# xmcd
#
# Track frame offsets:
#	150
#	13688
#	25572
#	45420
#	61284
#	79558
#	106691
#	130096
#	147725
#	170814
#	193263
#	206752
#	218627
#	238538
#	254427
#	272723
#	299773
#
# Disc length: 4316 seconds
#
# Revision: 1
# Processed by: cddbd v1.5.2PL0 Copyright (c) Steve Scherf et al.
# Submitted via: audiograbber 1.82.01
#
DISCID=fc10da11
DTITLE=Edynaldo do Rio - O Anjo tem a Chave
DYEAR=2002
DGENRE=Gospel
TTITLE0=O anjo tem a chave
TTITLE1=A grande vitoria
TTITLE2=Queima ele
TTITLE3=Vilarejo
TTITLE4=Fogo Puro
TTITLE5=Vem ca, vem ver
TTITLE6=Cavaleiro do ceu
TTITLE7=De madrugada
TTITLE8=Soldado Ferido
TTITLE9=Presente Especial
TTITLE10=PB
TTITLE11=PB
TTITLE12=PB
TTITLE13=PB
TTITLE14=PB
TTITLE15=PB
TTITLE16=PB
EXTD=
EXTT0=
EXTT1=
EXTT2=
EXTT3=
EXTT4=
EXTT5=
EXTT6=
EXTT7=
EXTT8=
EXTT9=
EXTT10=
EXTT11=
EXTT12=
EXTT13=
EXTT14=
EXTT15=
EXTT16=
PLAYORDER=
